<?xml version="1.0" encoding="UTF-8" standalone="no"?>
<!DOCTYPE svg PUBLIC "-//W3C//DTD SVG 1.1//EN" "http://www.w3.org/Graphics/SVG/1.1/DTD/svg11.dtd">
<svg width="100%" height="100%" viewBox="0 0 1024 1024" version="1.1" xmlns="http://www.w3.org/2000/svg" xmlns:xlink="http://www.w3.org/1999/xlink" xml:space="preserve" xmlns:serif="http://www.serif.com/" style="fill-rule:evenodd;clip-rule:evenodd;stroke-linejoin:round;stroke-miterlimit:2;">
    <g transform="matrix(-1,0,0,1,1024,0)">
        <rect x="0" y="0" width="1024" height="1024" style="fill:rgb(255,102,3);fill-rule:nonzero;"/>
    </g>
    <g transform="matrix(-1,0,0,1,1024,0)">
        <path d="M0,0L1024,0L1024,1024L952.284,1024C944.899,995.764 937.392,969.469 925.532,942.684C926.372,941.875 927.203,941.058 928.026,940.232C948.184,919.974 958.163,887.187 957.955,859.147C957.739,829.963 949.067,803.103 932.434,779.26C926.441,769.924 918.879,760.64 915.534,749.931C911.93,738.394 911.898,725.901 910.642,713.961C909.785,705.803 909.174,697.347 907.437,689.296C904.018,673.851 899.095,656.691 891.416,642.83C886.415,633.803 884.969,629.122 883.028,619.003C881.634,611.734 875.501,600.908 870.017,595.822C845.068,572.683 802.759,573.584 771.315,574.164C797.731,541.449 812.573,515.136 819.2,473.268C825.835,471.974 834.494,468.693 837.157,461.789C864.35,391.418 871.022,309.482 848.882,236.937C831.03,178.438 788.44,130.068 738.442,96.447C722.376,85.644 706.985,77.222 689.919,68.335C687.974,48.272 671.627,38.434 652.737,36.853C643.402,36.072 636.382,38.919 629.355,45.157C621.175,43.091 612.348,40.419 604.096,38.796C564.864,31.077 529.372,28.264 489.908,33.918C413.427,44.874 368.7,99.692 326.477,158.809C315.53,174.135 304.82,191.266 293.778,206.359C281.099,206.905 268.239,206.938 255.506,207.305L182.542,209.581C169.893,209.822 157.251,210.286 144.619,210.973C138.433,211.312 130.456,211.56 124.565,212.802C118.576,214.049 113.032,216.881 108.513,221.003C85.356,242.541 105.591,283.444 123.133,301.888C157.64,338.172 206.186,343.146 253.296,344.685L253.533,359.151C246.955,356.419 239.386,354.121 232.238,355.947C229.105,356.748 226.064,358.592 224.53,361.523C217.78,374.422 223.602,433.547 228.058,449.252C222.742,454.043 216.695,459.547 211.085,463.911C194.204,476.989 175.176,489.915 171.682,512.657C168.76,531.679 177.48,548.045 193.655,557.931C206.433,565.74 219.67,567.326 234.122,569.487C229.237,581.152 226.045,598.88 235.007,609.524C237.928,612.993 242.071,615.062 245.978,617.237C243.282,623.544 240.691,630.355 239.942,637.234C238.839,647.368 244.473,655.226 243.946,665.68C243.602,673.474 241.778,681.309 240.326,688.971C234.535,719.529 236.797,752.237 261.195,774.347C285.458,796.333 315.493,798.588 346.494,797.461C341.855,810.397 339.213,820.421 338.136,834.286C337.823,838.32 338.42,848.375 337.219,851.165C335.356,855.49 332.19,860.859 330.064,865.604C325.176,876.719 320.73,888.023 316.736,899.49C303.031,938.045 290.767,984.223 281.237,1024L0,1024L0,0Z" style="fill:white;fill-rule:nonzero;"/>
    </g>
    <g transform="matrix(-1,0,0,1,1024,0)">
        <path d="M751.545,599.48C779.131,596.709 826.72,594.447 850.756,611.405C860.865,618.434 859.54,629.344 863.357,639.125C869.16,653.995 876.708,666.827 881.154,682.374C888.403,707.717 885.08,735.362 893.453,760.175C899.316,777.548 912.994,791.658 921.22,807.816C939.437,842.458 938.761,887.517 913.757,918.671C901.015,895.758 874.874,853.242 854.162,838.115C845.422,831.731 834.39,827.371 824.045,824.413C732.124,798.125 561.001,857.326 474.768,894.071C464.643,898.385 454.676,903.029 444.582,907.39C438.105,910.188 430.964,912.644 424.815,916.064C421.613,917.845 418.99,920.347 417.928,923.94C417.012,927.037 417.506,931.233 419.144,934.021C420.552,936.418 422.867,937.695 425.536,938.233C428.784,938.887 432.003,938.377 435.119,937.361C445.88,933.851 456.321,928.108 466.737,923.63C488.643,914.155 510.744,905.136 533.026,896.579C600.638,870.95 769.837,817.196 835.347,854.825C849.419,862.908 859.94,879.375 869.078,892.405C898.186,933.915 913.849,975.61 927.307,1024L306.189,1024C311.198,1002.85 316.765,981.841 322.885,960.988C329.808,936.65 336.272,915.34 345.623,891.641C349.683,901.801 359.325,926.452 369.199,930.88C371.924,932.102 375.098,932.282 377.895,931.17C383.774,928.833 394.143,911.763 398.96,906.12C418.099,883.702 437.097,865.426 460.586,847.564C518.368,803.624 581.777,765.828 645.912,731.969C668.698,719.94 691.985,708.8 714.966,697.142C735.73,686.609 812.037,651.355 819.837,632.678C821.162,629.505 821.165,625.702 819.806,622.536C818.052,618.449 814.184,616.006 810.125,614.598C794.053,609.022 758.896,611.233 741.447,612.006C744.764,607.791 748.13,603.615 751.545,599.48Z" style="fill:white;fill-rule:nonzero;"/>
    </g>
    <g transform="matrix(-1,0,0,1,1024,0)">
        <path d="M649.869,77.34C652.227,77.685 654.359,78.433 656.572,79.335C722.96,106.374 787.926,155.38 817.672,222.084C847.19,288.274 843.951,377.387 817.532,444.025C796.725,435.111 775.119,424.063 754.368,414.757C753.216,414.241 748.055,407.228 746.903,405.726C738.951,397.134 732.109,392.268 721.279,387.484C714.049,384.348 706.29,382.616 698.413,382.378C693.032,382.175 686.371,382.782 681.562,380.792C676.719,378.787 671.8,376.364 667.025,374.157C657.607,369.78 648.163,365.458 638.694,361.193L595.47,342.156C592.375,340.812 589.257,339.411 586.144,338.104C563.238,328.487 541.83,315.767 520.008,303.786L545.669,245.606C568.957,192.349 603.472,112.356 649.869,77.34Z" style="fill:white;fill-rule:nonzero;"/>
    </g>
    <g transform="matrix(-1,0,0,1,1024,0)">
        <path d="M522.294,54.218C557.788,52.583 593.572,59.314 627.474,69.304C576.392,111.463 529.338,232.882 501.988,293.843L452.839,267.801C410.758,245.229 366.111,223.575 320.266,210.206C341.375,178.528 361.531,148.655 387.113,120.296C427.382,75.654 462.347,57.041 522.294,54.218Z" style="fill:white;fill-rule:nonzero;"/>
    </g>
    <g transform="matrix(-1,0,0,1,1024,0)">
        <path d="M692.477,401.705C712.153,401.146 733.078,413.681 741.013,431.802C750.953,454.502 750.166,484.991 740.951,507.909C729.019,537.583 703.191,566.56 674.098,580.64C664.228,585.069 653.196,586.277 643.293,581.234C637.951,578.514 629.388,571.626 623.276,573.897C618.375,575.718 617.42,581.86 619.976,586.169C624.381,593.594 632.253,598.227 640.285,600.9C657.868,606.802 673.103,602.797 689.041,594.845C692.366,607.625 694.655,613.844 703.58,623.571C701.606,640.714 702.319,658.06 705.691,674.983C699.847,677.445 692.501,681.366 686.721,684.255C675.034,690.009 663.414,695.896 651.862,701.916C621.051,717.518 590.795,734.193 561.15,751.911C547.674,759.854 532.768,768.555 519.776,777.134C495.972,792.487 472.404,808.135 449.812,825.246C444.741,829.087 439.834,833.13 434.629,836.782C434.16,834.738 433.74,831.978 433.469,829.858C431.374,813.47 426.583,799.063 420.381,783.775C430.95,780.499 442.583,776.974 452.746,772.506C481.994,759.646 510.238,742.411 535.825,723.36C551.555,711.648 569.092,697.055 581.876,682.428C602.971,658.293 611.4,626.136 610.263,594.615C609.778,581.17 608.046,566.887 607.325,553.236C606.01,528.324 606.495,504.828 611.57,480.304C615.049,463.498 620.032,445.966 631.102,432.462C634.086,432.769 635.675,433.247 638.346,431.712C642.967,429.057 646.633,424.192 650.37,420.349C661.906,408.488 676.236,402.911 692.477,401.705Z" style="fill:white;fill-rule:nonzero;"/>
    </g>
    <g transform="matrix(-1,0,0,1,1024,0)">
        <path d="M689.688,423.628C705.514,421.615 719.992,430.04 726.817,444.238C730.355,451.596 733.297,460.141 730.902,468.339C729.3,473.822 724.005,474.298 720.285,470.43C715.178,464.197 712.185,448.325 702.972,445.667C685.525,440.632 673.035,455.107 667.566,469.886C685.755,481.362 694.375,489.662 692.902,512.263C692.487,515.235 691.569,518.114 690.187,520.777C684.873,530.933 676.857,535.626 666.183,538.688C659.146,540.85 648.623,548.448 641.258,543.245C628.472,534.212 643.731,523.385 648.797,516.45C657.39,504.688 645.097,495.833 643.339,486.078C641.085,473.577 648.435,456.334 655.571,446.366C664.37,434.233 674.857,426.24 689.688,423.628Z" style="fill:white;fill-rule:nonzero;"/>
    </g>
    <g transform="matrix(-1,0,0,1,1024,0)">
        <path d="M551.805,411.726L557.658,411.681C561.281,434.111 559.375,451.174 554.807,472.749C544.545,521.226 510.729,552.84 467.067,572.969C449.188,581.212 433.765,587.089 417.33,598.665C401.176,610.044 400.245,627.027 385.526,636.116C381.081,617.778 383.401,606.973 370.377,590.337C354.423,569.957 335.026,570.337 311.596,567.266C303.781,566.242 295.222,561.818 287.172,560.762C293.171,555.821 297.134,552.341 299.35,544.235C300.675,539.388 301.19,525.359 294.24,524.874C282.331,524.044 288.833,540.641 279.404,546.175C267.011,553.449 255.707,544.958 242.828,545.242C231.17,546.053 231.801,550.872 218.034,548.122C204.447,544.229 190.335,537.392 189.414,521.08C188.569,506.128 201.1,495.154 211.645,486.63C220.479,479.489 229.416,472.177 237.737,464.425C251.296,452.058 262.015,437.526 273.892,423.723C275.269,431.48 275.905,440.906 277.146,449.08C280.616,471.936 286.88,503.39 304,519.703C315.307,530.477 332.404,533.802 347.498,532.989C367.632,531.906 381.488,520.064 387.319,500.987C389.656,492.8 390.562,484.182 391.461,475.745C393.086,460.5 393.404,445.189 394.563,429.91C394.885,425.67 395.532,420.856 398.577,417.613C400.174,415.912 403.599,415.956 405.775,415.588C420.08,414.868 434.429,414.757 448.753,414.341L551.805,411.726Z" style="fill:white;fill-rule:nonzero;"/>
    </g>
    <g transform="matrix(-1,0,0,1,1024,0)">
        <path d="M305.46,228.256C310.504,228.593 314.787,230.018 319.588,231.512C358.365,243.576 394.796,261.752 430.848,280.319C461.638,296.275 492.15,312.76 522.371,329.768C505.04,331.608 487.872,334.352 470.457,336.164C441.879,339.262 413.118,340.336 384.389,339.378C316.286,335.561 276.507,318.299 222.742,275.751C204.438,261.266 185.714,245.502 166.434,232.438C186.624,231.232 207.902,230.923 228.133,230.352C253.905,229.524 279.681,228.826 305.46,228.256Z" style="fill:white;fill-rule:nonzero;"/>
    </g>
    <g transform="matrix(-1,0,0,1,1024,0)">
        <path d="M310.385,380.148C322.098,378.978 335.395,381.135 346.415,385.15C355.611,388.5 364.267,394.084 368.413,403.281C376.92,422.153 374.47,481.425 366.826,500.638C363.888,508.023 360.383,511.566 353.067,514.687C352.49,514.828 351.911,514.962 351.331,515.09C340.699,517.422 327.372,515.755 317.938,509.895C305.806,502.359 299.048,476.572 295.914,461.941C291.956,443.458 285.881,405.402 295.163,388.017C297.629,383.398 305.354,381.081 310.385,380.148Z" style="fill:white;fill-rule:nonzero;"/>
    </g>
    <g transform="matrix(-1,0,0,1,1024,0)">
        <path d="M272.269,335.02C277.639,337.167 284.333,340.588 290.037,342.999C299.883,347.096 310.002,350.505 320.321,353.2C385.219,370.828 464.571,360.048 530.196,351.047C534.625,368.609 537.186,373.077 548.727,386.956L541.225,386.964L442.462,384.711L414.183,384.247C411.341,384.187 402.097,384.315 399.494,383.616C366.248,374.685 330.371,355.606 295.338,366.801C288.125,369.106 282.567,375.097 278.204,380.98C277.388,377.265 275.443,371.779 274.405,367.872C271.159,355.65 270.767,347.365 272.269,335.02Z" style="fill:white;fill-rule:nonzero;"/>
    </g>
    <g transform="matrix(-1,0,0,1,1024,0)">
        <path d="M340.26,611.484L341.661,611.652C350.974,619.096 355.722,637.397 353.341,648.725C351.272,658.569 345.857,668.835 337.375,674.64C328.795,680.681 310.254,686.03 303.041,675.541C298.777,669.339 303.951,661.462 305.195,654.987C304.626,643.96 298.544,644.614 289.701,645.193C271.143,646.408 248.411,644.873 268.098,621.673C291.395,624.473 318.307,618.987 340.26,611.484Z" style="fill:white;fill-rule:nonzero;"/>
    </g>
    <g transform="matrix(-1,0,0,1,1024,0)">
        <path d="M394.274,790.591L395.355,790.684C406.938,802.602 409.739,839.189 413.277,855.183C400.844,866.719 389.154,880.237 378.359,893.287L374.174,898.123C358.082,859.339 356.963,832.873 374.499,794.462C381.124,793.347 387.718,792.056 394.274,790.591Z" style="fill:white;fill-rule:nonzero;"/>
    </g>
    <g transform="matrix(-1,0,0,1,1024,0)">
        <path d="M237.846,372.29C255.644,372.83 254.28,404.729 254.924,417.406C252.815,421.553 248.825,426.236 245.872,429.979C243.889,432.477 242.112,434.481 239.971,436.845C237.209,425.306 233.365,382.1 237.846,372.29Z" style="fill:white;fill-rule:nonzero;"/>
    </g>
</svg>
